<?xml version="1.0" encoding="utf-8"?>
<svg xmlns="http://www.w3.org/2000/svg" style="margin: auto; display: block; shape-rendering: auto;" width="276" height="132" preserveAspectRatio="xMidYMid">
<style type="text/css">
  text {
    text-anchor: middle; font-size: 44px; opacity: 0;
  }
</style>
<g style="transform-origin:138px 66px;transform:scale(1)">
<g transform="translate(138,66)">
  <g transform="translate(0,0)"><g class="path" style="transform: scale(0.91); transform-origin: -96.97px -2.2479px; animation: 1s linear -0.5775s infinite normal forwards running breath-0f066a21-9eb5-4604-b7a7-816606607998;"><path d="M7.46-21.23L7.46 0L3.50 0L3.50-30.94L9.04-30.94L27.84-9.69L27.84-30.94L31.78-30.94L31.78 0L26.23 0L7.46-21.23" fill="#ffd14f" stroke="none" stroke-width="none" transform="translate(-114.61003684997559,13.222098307609558)" style="fill: rgb(255, 209, 79);"></path></g><g class="path" style="transform: scale(0.91); transform-origin: -64.415px 0.757098px; animation: 1s linear -0.495s infinite normal forwards running breath-0f066a21-9eb5-4604-b7a7-816606607998;"><path d="M64.04-12.46L64.04-12.46L64.04-12.46Q64.04-10.53 63.53-8.83L63.53-8.83L63.53-8.83Q63.01-7.13 62.10-5.69L62.10-5.69L62.10-5.69Q61.19-4.25 59.90-3.10L59.90-3.10L59.90-3.10Q58.61-1.96 57.07-1.16L57.07-1.16L57.07-1.16Q55.54-0.37 53.79 0.06L53.79 0.06L53.79 0.06Q52.04 0.49 50.19 0.49L50.19 0.49L50.19 0.49Q48.34 0.49 46.60 0.06L46.60 0.06L46.60 0.06Q44.86-0.37 43.32-1.16L43.32-1.16L43.32-1.16Q41.79-1.96 40.50-3.10L40.50-3.10L40.50-3.10Q39.21-4.25 38.30-5.69L38.30-5.69L38.30-5.69Q37.38-7.13 36.87-8.84L36.87-8.84L36.87-8.84Q36.35-10.55 36.35-12.46L36.35-12.46L36.35-12.46Q36.35-14.37 36.87-16.08L36.87-16.08L36.87-16.08Q37.38-17.79 38.30-19.23L38.30-19.23L38.30-19.23Q39.21-20.67 40.50-21.82L40.50-21.82L40.50-21.82Q41.79-22.97 43.32-23.76L43.32-23.76L43.32-23.76Q44.86-24.56 46.60-24.99L46.60-24.99L46.60-24.99Q48.34-25.42 50.19-25.42L50.19-25.42L50.19-25.42Q52.04-25.42 53.79-24.99L53.79-24.99L53.79-24.99Q55.54-24.56 57.07-23.76L57.07-23.76L57.07-23.76Q58.61-22.97 59.90-21.82L59.90-21.82L59.90-21.82Q61.19-20.67 62.10-19.23L62.10-19.23L62.10-19.23Q63.01-17.79 63.53-16.08L63.53-16.08L63.53-16.08Q64.04-14.37 64.04-12.46zM56.65-12.46L56.65-12.46L56.65-12.46Q56.65-13.49 56.54-14.64L56.54-14.64L56.54-14.64Q56.42-15.79 56.14-16.90L56.14-16.90L56.14-16.90Q55.86-18.00 55.38-19.02L55.38-19.02L55.38-19.02Q54.89-20.04 54.18-20.81L54.18-20.81L54.18-20.81Q53.47-21.57 52.49-22.03L52.49-22.03L52.49-22.03Q51.50-22.49 50.19-22.49L50.19-22.49L50.19-22.49Q48.94-22.49 47.97-22.02L47.97-22.02L47.97-22.02Q47.01-21.55 46.29-20.76L46.29-20.76L46.29-20.76Q45.57-19.98 45.08-18.95L45.08-18.95L45.08-18.95Q44.60-17.92 44.30-16.81L44.30-16.81L44.30-16.81Q44-15.71 43.87-14.58L43.87-14.58L43.87-14.58Q43.74-13.45 43.74-12.46L43.74-12.46L43.74-12.46Q43.74-11.47 43.87-10.34L43.87-10.34L43.87-10.34Q44-9.22 44.30-8.10L44.30-8.10L44.30-8.10Q44.60-6.98 45.08-5.96L45.08-5.96L45.08-5.96Q45.57-4.94 46.29-4.16L46.29-4.16L46.29-4.16Q47.01-3.37 47.97-2.90L47.97-2.90L47.97-2.90Q48.94-2.43 50.19-2.43L50.19-2.43L50.19-2.43Q51.48-2.43 52.46-2.89L52.46-2.89L52.46-2.89Q53.45-3.35 54.17-4.13L54.17-4.13L54.17-4.13Q54.89-4.90 55.37-5.91L55.37-5.91L55.37-5.91Q55.84-6.92 56.13-8.04L56.13-8.04L56.13-8.04Q56.42-9.15 56.54-10.29L56.54-10.29L56.54-10.29Q56.65-11.43 56.65-12.46" fill="#ffd14f" stroke="none" stroke-width="none" transform="translate(-114.61003684997559,13.222098307609558)" style="fill: rgb(75, 167, 97);"></path></g><g class="path" style="transform: scale(0.91); transform-origin: -21.95px -2.2479px; animation: 1s linear -0.4125s infinite normal forwards running breath-0f066a21-9eb5-4604-b7a7-816606607998;"><path d="M103.77-3.95L103.77 0L81.55 0L81.55-30.94L103.77-30.94L103.77-26.98L90.08-26.98L90.08-17.42L100.65-17.42L100.65-13.49L90.08-13.49L90.08-3.95L103.77-3.95" fill="#ffd14f" stroke="none" stroke-width="none" transform="translate(-114.61003684997559,13.222098307609558)" style="fill: rgb(40, 130, 251);"></path></g><g class="path" style="transform: scale(0.91); transform-origin: 3.13496px 0.817099px; animation: 1s linear -0.33s infinite normal forwards running breath-0f066a21-9eb5-4604-b7a7-816606607998;"><path d="M130.41-24.81L120.63 0L114.10 0L105.08-24.81L112.34-24.81L118.96-5.05L125.38-24.81L130.41-24.81" fill="#ffd14f" stroke="none" stroke-width="none" transform="translate(-114.61003684997559,13.222098307609558)" style="fill: rgb(255, 209, 79);"></path></g><g class="path" style="transform: scale(0.91); transform-origin: 29.595px 0.757098px; animation: 1s linear -0.2475s infinite normal forwards running breath-0f066a21-9eb5-4604-b7a7-816606607998;"><path d="M138.96-11.77L138.96-11.77L138.96-11.77Q140.29-11.47 141.63-11.30L141.63-11.30L141.63-11.30Q142.96-11.13 144.31-11.13L144.31-11.13L144.31-11.13Q145.73-11.13 146.94-11.40L146.94-11.40L146.94-11.40Q148.16-11.67 149.05-12.30L149.05-12.30L149.05-12.30Q149.94-12.93 150.46-13.99L150.46-13.99L150.46-13.99Q150.97-15.04 150.97-16.61L150.97-16.61L150.97-16.61Q150.97-17.88 150.63-18.93L150.63-18.93L150.63-18.93Q150.28-19.98 149.61-20.73L149.61-20.73L149.61-20.73Q148.93-21.48 147.94-21.90L147.94-21.90L147.94-21.90Q146.95-22.32 145.64-22.32L145.64-22.32L145.64-22.32Q144.42-22.32 143.44-21.87L143.44-21.87L143.44-21.87Q142.46-21.42 141.72-20.66L141.72-20.66L141.72-20.66Q140.98-19.89 140.45-18.88L140.45-18.88L140.45-18.88Q139.93-17.88 139.58-16.78L139.58-16.78L139.58-16.78Q139.24-15.68 139.09-14.57L139.09-14.57L139.09-14.57Q138.94-13.45 138.94-12.46L138.94-12.46L138.94-12.46Q138.94-12.29 138.94-12.12L138.94-12.12L138.94-12.12Q138.94-11.95 138.96-11.77zM156.86-16.67L156.86-16.67L156.86-16.67Q156.86-15.15 156.36-13.95L156.36-13.95L156.36-13.95Q155.87-12.76 155.02-11.86L155.02-11.86L155.02-11.86Q154.17-10.96 153.05-10.33L153.05-10.33L153.05-10.33Q151.94-9.71 150.67-9.31L150.67-9.31L150.67-9.31Q149.40-8.92 148.06-8.74L148.06-8.74L148.06-8.74Q146.72-8.57 145.45-8.57L145.45-8.57L145.45-8.57Q143.84-8.57 142.27-8.80L142.27-8.80L142.27-8.80Q140.70-9.02 139.18-9.52L139.18-9.52L139.18-9.52Q139.41-8.10 139.93-6.82L139.93-6.82L139.93-6.82Q140.44-5.54 141.30-4.59L141.30-4.59L141.30-4.59Q142.16-3.63 143.42-3.07L143.42-3.07L143.42-3.07Q144.68-2.51 146.39-2.51L146.39-2.51L146.39-2.51Q147.53-2.51 148.56-2.86L148.56-2.86L148.56-2.86Q149.60-3.20 150.46-3.82L150.46-3.82L150.46-3.82Q151.31-4.45 151.97-5.31L151.97-5.31L151.97-5.31Q152.63-6.17 153.03-7.22L153.03-7.22L156.17-6.06L156.17-6.06Q155.46-4.36 154.23-3.13L154.23-3.13L154.23-3.13Q152.99-1.89 151.43-1.08L151.43-1.08L151.43-1.08Q149.88-0.28 148.12 0.11L148.12 0.11L148.12 0.11Q146.37 0.49 144.65 0.49L144.65 0.49L144.65 0.49Q141.82 0.49 139.41-0.46L139.41-0.46L139.41-0.46Q137.01-1.42 135.27-3.14L135.27-3.14L135.27-3.14Q133.53-4.86 132.54-7.24L132.54-7.24L132.54-7.24Q131.55-9.63 131.55-12.46L131.55-12.46L131.55-12.46Q131.55-15.30 132.54-17.68L132.54-17.68L132.54-17.68Q133.53-20.07 135.27-21.79L135.27-21.79L135.27-21.79Q137.01-23.50 139.41-24.46L139.41-24.46L139.41-24.46Q141.82-25.42 144.65-25.42L144.65-25.42L144.65-25.42Q146.03-25.42 147.47-25.22L147.47-25.22L147.47-25.22Q148.91-25.03 150.26-24.61L150.26-24.61L150.26-24.61Q151.62-24.19 152.82-23.53L152.82-23.53L152.82-23.53Q154.02-22.86 154.91-21.88L154.91-21.88L154.91-21.88Q155.80-20.90 156.33-19.62L156.33-19.62L156.33-19.62Q156.86-18.33 156.86-16.67" fill="#ffd14f" stroke="none" stroke-width="none" transform="translate(-114.61003684997559,13.222098307609558)" style="fill: rgb(75, 167, 97);"></path></g><g class="path" style="transform: scale(0.91); transform-origin: 59.465px 3.1571px; animation: 1s linear -0.165s infinite normal forwards running breath-0f066a21-9eb5-4604-b7a7-816606607998;"><path d="M186.76-14.22L186.76-14.22L186.76-14.22Q186.76-11.71 186.15-8.98L186.15-8.98L186.15-8.98Q185.54-6.25 184.44-3.63L184.44-3.63L184.44-3.63Q183.35-1.01 181.82 1.30L181.82 1.30L181.82 1.30Q180.30 3.61 178.47 5.29L178.47 5.29L175.74 3.80L175.74 3.80Q176.32 2.73 176.84 1.40L176.84 1.40L176.84 1.40Q177.35 0.06 177.77-1.43L177.77-1.43L177.77-1.43Q178.19-2.92 178.52-4.51L178.52-4.51L178.52-4.51Q178.86-6.10 179.08-7.66L179.08-7.66L179.08-7.66Q179.31-9.22 179.43-10.69L179.43-10.69L179.43-10.69Q179.54-12.16 179.54-13.43L179.54-13.43L179.54-13.43Q179.54-14.27 179.48-15.22L179.48-15.22L179.48-15.22Q179.42-16.18 179.21-17.13L179.21-17.13L179.21-17.13Q179.01-18.09 178.66-18.97L178.66-18.97L178.66-18.97Q178.32-19.85 177.75-20.52L177.75-20.52L177.75-20.52Q177.18-21.18 176.38-21.59L176.38-21.59L176.38-21.59Q175.57-22 174.47-22L174.47-22L174.47-22Q173.40-22 172.56-21.52L172.56-21.52L172.56-21.52Q171.72-21.03 171.08-20.25L171.08-20.25L171.08-20.25Q170.44-19.46 169.97-18.46L169.97-18.46L169.97-18.46Q169.51-17.45 169.22-16.38L169.22-16.38L169.22-16.38Q168.93-15.32 168.80-14.29L168.80-14.29L168.80-14.29Q168.67-13.26 168.67-12.44L168.67-12.44L168.67 0L161.39 0L161.39-24.81L164.18-24.81L167.51-19.04L167.51-19.04Q168.12-20.47 169.02-21.66L169.02-21.66L169.02-21.66Q169.92-22.84 171.06-23.68L171.06-23.68L171.06-23.68Q172.20-24.51 173.58-24.96L173.58-24.96L173.58-24.96Q174.97-25.42 176.58-25.42L176.58-25.42L176.58-25.42Q179.16-25.42 181.07-24.58L181.07-24.58L181.07-24.58Q182.98-23.74 184.25-22.25L184.25-22.25L184.25-22.25Q185.52-20.75 186.14-18.70L186.14-18.70L186.14-18.70Q186.76-16.65 186.76-14.22" fill="#ffd14f" stroke="none" stroke-width="none" transform="translate(-114.61003684997559,13.222098307609558)" style="fill: rgb(40, 130, 251);"></path></g><g class="path" style="transform: scale(0.91); transform-origin: 83.895px -3.7529px; animation: 1s linear -0.0825s infinite normal forwards running breath-0f066a21-9eb5-4604-b7a7-816606607998;"><path d="M200.64-21.94L200.64 0L193.36 0L193.36-21.94L188.85-21.94L188.85-24.81L193.36-24.81L193.36-33.95L200.64-33.95L200.64-24.81L208.16-24.81L208.16-21.94L200.64-21.94" fill="#ffd14f" stroke="none" stroke-width="none" transform="translate(-114.61003684997559,13.222098307609558)" style="fill: rgb(255, 209, 79);"></path></g><g class="path" style="transform: scale(0.91); transform-origin: 106.645px 0.757098px; animation: 1s linear 0s infinite normal forwards running breath-0f066a21-9eb5-4604-b7a7-816606607998;"><path d="M232.72-7.93L232.72-7.93L232.72-7.93Q232.72-6.29 232.25-5.03L232.25-5.03L232.25-5.03Q231.77-3.76 230.96-2.83L230.96-2.83L230.96-2.83Q230.14-1.89 229.02-1.26L229.02-1.26L229.02-1.26Q227.91-0.62 226.63-0.24L226.63-0.24L226.63-0.24Q225.35 0.15 223.95 0.32L223.95 0.32L223.95 0.32Q222.56 0.49 221.18 0.49L221.18 0.49L221.18 0.49Q219.33 0.49 217.92 0.26L217.92 0.26L217.92 0.26Q216.50 0.02 215.21-0.50L215.21-0.50L215.21-0.50Q213.92-1.03 212.64-1.87L212.64-1.87L212.64-1.87Q211.36-2.71 209.79-3.91L209.79-3.91L214.03-7.37L214.03-7.37Q214.61-6.27 215.56-5.38L215.56-5.38L215.56-5.38Q216.52-4.49 217.55-3.85L217.55-3.85L217.55-3.85Q218.58-3.20 219.55-2.86L219.55-2.86L219.55-2.86Q220.52-2.51 221.12-2.51L221.12-2.51L221.12-2.51Q221.61-2.51 222.23-2.55L222.23-2.55L222.23-2.55Q222.86-2.58 223.50-2.67L223.50-2.67L223.50-2.67Q224.15-2.77 224.77-2.96L224.77-2.96L224.77-2.96Q225.39-3.16 225.88-3.49L225.88-3.49L225.88-3.49Q226.36-3.82 226.65-4.33L226.65-4.33L226.65-4.33Q226.94-4.83 226.94-5.54L226.94-5.54L226.94-5.54Q226.94-6.27 226.56-6.82L226.56-6.82L226.56-6.82Q226.19-7.37 225.59-7.78L225.59-7.78L225.59-7.78Q224.98-8.19 224.21-8.46L224.21-8.46L224.21-8.46Q223.44-8.74 222.65-8.96L222.65-8.96L222.65-8.96Q221.87-9.17 221.14-9.33L221.14-9.33L221.14-9.33Q220.41-9.50 219.87-9.65L219.87-9.65L219.87-9.65Q218.88-9.93 217.79-10.22L217.79-10.22L217.79-10.22Q216.69-10.51 215.62-10.88L215.62-10.88L215.62-10.88Q214.54-11.26 213.57-11.77L213.57-11.77L213.57-11.77Q212.59-12.29 211.85-13.01L211.85-13.01L211.85-13.01Q211.11-13.73 210.67-14.71L210.67-14.71L210.67-14.71Q210.22-15.68 210.22-16.99L210.22-16.99L210.22-16.99Q210.22-19.40 211.18-21.02L211.18-21.02L211.18-21.02Q212.14-22.64 213.71-23.62L213.71-23.62L213.71-23.62Q215.27-24.60 217.27-25.01L217.27-25.01L217.27-25.01Q219.27-25.42 221.33-25.42L221.33-25.42L221.33-25.42Q222.75-25.42 224.32-25.13L224.32-25.13L224.32-25.13Q225.89-24.84 227.37-24.27L227.37-24.27L227.37-24.27Q228.85-23.70 230.14-22.88L230.14-22.88L230.14-22.88Q231.43-22.06 232.29-21.01L232.29-21.01L228.06-17.53L228.06-17.53Q227.58-18.82 226.82-19.74L226.82-19.74L226.82-19.74Q226.06-20.67 225.17-21.26L225.17-21.26L225.17-21.26Q224.28-21.85 223.34-22.13L223.34-22.13L223.34-22.13Q222.41-22.41 221.61-22.41L221.61-22.41L221.61-22.41Q220.84-22.41 219.87-22.34L219.87-22.34L219.87-22.34Q218.90-22.28 218.06-21.98L218.06-21.98L218.06-21.98Q217.21-21.68 216.62-21.07L216.62-21.07L216.62-21.07Q216.03-20.45 216.03-19.38L216.03-19.38L216.03-19.38Q216.03-18.61 216.38-18.06L216.38-18.06L216.38-18.06Q216.73-17.51 217.31-17.11L217.31-17.11L217.31-17.11Q217.89-16.71 218.64-16.45L218.64-16.45L218.64-16.45Q219.38-16.18 220.15-15.97L220.15-15.97L220.15-15.97Q220.92-15.77 221.65-15.62L221.65-15.62L221.65-15.62Q222.38-15.47 222.96-15.30L222.96-15.30L222.96-15.30Q223.95-15.02 225.06-14.73L225.06-14.73L225.06-14.73Q226.17-14.44 227.24-14.06L227.24-14.06L227.24-14.06Q228.31-13.69 229.31-13.18L229.31-13.18L229.31-13.18Q230.31-12.68 231.06-11.95L231.06-11.95L231.06-11.95Q231.82-11.21 232.27-10.24L232.27-10.24L232.27-10.24Q232.72-9.26 232.72-7.93" fill="#ffd14f" stroke="none" stroke-width="none" transform="translate(-114.61003684997559,13.222098307609558)" style="fill: rgb(75, 167, 97);"></path></g></g>
</g>
</g>
<style id="breath-0f066a21-9eb5-4604-b7a7-816606607998" data-anikit="">@keyframes breath-0f066a21-9eb5-4604-b7a7-816606607998
{
  0% {
    animation-timing-function: cubic-bezier(0.9647,0.2413,-0.0705,0.7911);
    transform: scale(0.9099999999999999);
  }
  51% {
    animation-timing-function: cubic-bezier(0.9226,0.2631,-0.0308,0.7628);
    transform: scale(1.02994);
  }
  100% {
    transform: scale(0.9099999999999999);
  }
}</style></svg>