<?xml version="1.0" encoding="utf-8"?>
<svg xmlns="http://www.w3.org/2000/svg" style="margin: auto; background: none; display: block; shape-rendering: auto;" width="280" height="250" preserveAspectRatio="xMidYMid">
<style type="text/css">
  text {
    text-anchor: middle; font-size: 80px; opacity: 0;
  }
</style>
<g style="transform-origin:140px 125px;transform:scale(1)">
<g transform="translate(140,125)">
  <g transform="translate(0,0)"><g class="path" style="transform: matrix(0.01, 0, 0, 0.01, 0, 0); transform-origin: -85.68px -0.206001px; animation: 1s linear 0s 1 normal forwards running bounce-in-99c70a7e-564b-4105-95e0-cbc547757161;"><path d="M17.16-14.56L17.16-14.56L17.16-14.56Q14.96-16.24 13.28-19.68L13.28-19.68L13.28-19.68Q11.60-23.12 11.60-27.44L11.60-27.44L11.60-27.44Q11.60-31.76 12.96-35.44L12.96-35.44L12.96-35.44Q14.32-39.12 17-42.12L17-42.12L17-42.12Q19.68-45.12 24.16-46.92L24.16-46.92L24.16-46.92Q28.64-48.72 33.68-48.72L33.68-48.72L33.68-48.72Q38.72-48.72 42.80-47.96L42.80-47.96L42.80-47.96Q46.88-47.20 49.20-46.36L49.20-46.36L49.20-46.36Q51.52-45.52 53.32-44.76L53.32-44.76L53.32-44.76Q55.12-44 56.24-43.56L56.24-43.56L56.24-43.56Q57.36-43.12 57.60-43.04L57.60-43.04L57.60-43.04Q57.84-42.96 58.88-42.56L58.88-42.56L58.88-42.56Q59.92-42.16 60.28-42.08L60.28-42.08L60.28-42.08Q60.64-42 61.56-41.68L61.56-41.68L61.56-41.68Q62.48-41.36 63-41.28L63-41.28L63-41.28Q63.52-41.20 64.40-41L64.40-41L64.40-41Q65.28-40.80 65.92-40.76L65.92-40.76L65.92-40.76Q66.56-40.72 67.44-40.64L67.44-40.64L67.44-40.64Q68.32-40.56 69.12-40.56L69.12-40.56L69.12-40.56Q73.04-40.56 75.96-41.88L75.96-41.88L75.96-41.88Q78.88-43.20 80.20-44.80L80.20-44.80L80.20-44.80Q81.52-46.40 82.32-48.48L82.32-48.48L82.32-48.48Q83.28-51.04 83.28-53.12L83.28-53.12L85.04-53.12L85.04-53.12Q85.04-51.20 84.04-48.44L84.04-48.44L84.04-48.44Q83.04-45.68 81.56-43.80L81.56-43.80L81.56-43.80Q80.08-41.92 76.80-40.40L76.80-40.40L76.80-40.40Q73.52-38.88 69-38.88L69-38.88L69-38.88Q64.48-38.88 59.92-40.32L59.92-40.32L59.92-40.32Q54.48-32.64 48.48-9.36L48.48-9.36L48.48-9.36Q45.52 2.32 39.96 7.64L39.96 7.64L39.96 7.64Q34.40 12.96 23.88 12.96L23.88 12.96L23.88 12.96Q13.36 12.96 8.16 6.56L8.16 6.56L8.16 6.56Q3.60 0.88 3.60-6.64L3.60-6.64L3.60-6.64Q3.60-7.60 3.68-8.56L3.68-8.56L5.52-8.56L5.52-7.44L5.52-7.44Q5.52-1.92 8.48 3.36L8.48 3.36L8.48 3.36Q9.76 5.60 11.56 7.24L11.56 7.24L11.56 7.24Q13.36 8.88 16.40 10L16.40 10L16.40 10Q19.44 11.12 23.20 11.12L23.20 11.12L23.20 11.12Q29.44 11.12 33.08 6.08L33.08 6.08L33.08 6.08Q36.72 1.04 40.12-13.40L40.12-13.40L40.12-13.40Q43.52-27.84 47.08-34.04L47.08-34.04L47.08-34.04Q50.64-40.24 57.44-41.20L57.44-41.20L57.44-41.20Q55.36-42 53.04-43L53.04-43L53.04-43Q50.72-44 48.60-44.76L48.60-44.76L48.60-44.76Q46.48-45.52 42.52-46.28L42.52-46.28L42.52-46.28Q38.56-47.04 33.68-47.04L33.68-47.04L33.68-47.04Q28.80-47.04 24.60-45.28L24.60-45.28L24.60-45.28Q20.40-43.52 18.08-40.64L18.08-40.64L18.08-40.64Q13.44-35.04 13.44-27.68L13.44-27.68L13.44-27.68Q13.44-23.52 14.96-20.36L14.96-20.36L14.96-20.36Q16.48-17.20 18.64-15.68L18.64-15.68L18.64-15.68Q23.04-12.72 26.64-12.32L26.64-12.32L28.16-12.16L27.68-10.40L27.68-10.40Q25.68-10.40 22.52-11.64L22.52-11.64L22.52-11.64Q19.36-12.88 17.16-14.56" fill="#51cacc" stroke="none" stroke-width="none" transform="translate(-130,19.87399826049805)" style="fill: rgb(81, 202, 204);"></path></g><g class="path" style="transform: matrix(0.01, 0, 0, 0.01, 0, 0); transform-origin: -29.2px -5.686px; animation: 1s linear 0.0825s 1 normal forwards running bounce-in-99c70a7e-564b-4105-95e0-cbc547757161;"><path d="M113.60-0.88L113.60-0.88L113.60-0.88Q115.52-0.88 117.60-3.12L117.60-3.12L118.80-2.16L118.80-2.16Q118.24-1.04 116.32-0.16L116.32-0.16L116.32-0.16Q114.40 0.72 112.08 0.72L112.08 0.72L112.08 0.72Q104.80 0.72 104.80-5.84L104.80-5.84L104.80-5.84Q104.80-8.64 106.24-15.84L106.24-15.84L106.24-15.84Q107.68-23.04 107.68-25.28L107.68-25.28L107.68-25.28Q107.68-28.72 104.40-28.72L104.40-28.72L104.40-28.72Q101.68-28.72 99.16-25.04L99.16-25.04L99.16-25.04Q96.64-21.36 95.04-15.04L95.04-15.04L92.40 0L82.80 0L91.68-50.24L91.68-50.24Q89.28-50 87.68-48L87.68-48L86.48-48.96L86.48-48.96Q88.88-51.84 92.52-51.84L92.52-51.84L92.52-51.84Q96.16-51.84 98.16-50L98.16-50L98.16-50Q100.16-48.16 100.16-44.80L100.16-44.80L100.16-44.80Q100.16-44.16 100.00-42.72L100.00-42.72L96.64-23.76L96.64-23.76Q99.92-31.12 106.80-31.12L106.80-31.12L106.80-31.12Q111.52-31.12 114.16-28.44L114.16-28.44L114.16-28.44Q116.80-25.76 116.80-21.04L116.80-21.04L116.80-21.04Q116.80-18.56 115.28-11.48L115.28-11.48L115.28-11.48Q113.76-4.40 113.60-0.88" fill="#51cacc" stroke="none" stroke-width="none" transform="translate(-130,19.87399826049805)" style="fill: rgb(157, 248, 113);"></path></g><g class="path" style="transform: matrix(0.01, 0, 0, 0.01, 0, 0); transform-origin: 0.679996px 4.674px; animation: 1s linear 0.165s 1 normal forwards running bounce-in-99c70a7e-564b-4105-95e0-cbc547757161;"><path d="M137.36-2.16L137.36-2.16Q134.96 0.72 131.36 0.72L131.36 0.72L131.36 0.72Q127.76 0.72 125.72-1.12L125.72-1.12L125.72-1.12Q123.68-2.96 123.68-5.92L123.68-5.92L123.68-5.92Q123.68-6.96 124.96-14.64L124.96-14.64L127.60-28.96L124.24-28.96L124.40-30.40L127.84-30.40L127.84-30.40Q133.76-30.40 136.56-30.88L136.56-30.88L137.68-31.12L132.16-0.88L132.16-0.88Q134.56-1.12 136.16-3.12L136.16-3.12L137.36-2.16" fill="#51cacc" stroke="none" stroke-width="none" transform="translate(-130,19.87399826049805)" style="fill: rgb(224, 255, 119);"></path></g><g class="path" style="transform: matrix(0.01, 0, 0, 0.01, 0, 0); transform-origin: 4.44px -23.046px; animation: 1s linear 0.2475s 1 normal forwards running bounce-in-99c70a7e-564b-4105-95e0-cbc547757161;"><path d="M130.32-38.80L130.32-38.80L130.32-38.80Q128.64-40.48 128.64-42.88L128.64-42.88L128.64-42.88Q128.64-45.28 130.32-47L130.32-47L130.32-47Q132-48.72 134.40-48.72L134.40-48.72L134.40-48.72Q136.80-48.72 138.52-47L138.52-47L138.52-47Q140.24-45.28 140.24-42.88L140.24-42.88L140.24-42.88Q140.24-40.48 138.52-38.80L138.52-38.80L138.52-38.80Q136.80-37.12 134.40-37.12L134.40-37.12L134.40-37.12Q132-37.12 130.32-38.80" fill="#51cacc" stroke="none" stroke-width="none" transform="translate(-130,19.87399826049805)" style="fill: rgb(222, 157, 214);"></path></g><g class="path" style="transform: matrix(0.01, 0, 0, 0.01, 0, 0); transform-origin: 26.96px 4.314px; animation: 1s linear 0.33s 1 normal forwards running bounce-in-99c70a7e-564b-4105-95e0-cbc547757161;"><path d="M143.60-27.28L142.40-28.24L142.40-28.24Q144.80-31.12 148.44-31.12L148.44-31.12L148.44-31.12Q152.08-31.12 154.08-29.28L154.08-29.28L154.08-29.28Q156.08-27.44 156.08-24.08L156.08-24.08L156.08-23.60L156.08-23.60Q159.68-31.12 165.44-31.12L165.44-31.12L165.44-31.12Q171.60-31.12 171.60-24.72L171.60-24.72L171.60-24.72Q171.60-22.08 169.84-19.12L169.84-19.12L169.84-19.12Q168.08-16.16 166.32-13.48L166.32-13.48L166.32-13.48Q164.56-10.80 164.56-8.72L164.56-8.72L162.64-8.72L162.64-8.72Q162.64-11.68 166.08-16.72L166.08-16.72L166.08-16.72Q169.52-21.76 169.52-24.52L169.52-24.52L169.52-24.52Q169.52-27.28 168.44-28.28L168.44-28.28L168.44-28.28Q167.36-29.28 165.24-29.28L165.24-29.28L165.24-29.28Q163.12-29.28 161.08-27.44L161.08-27.44L161.08-27.44Q159.04-25.60 157.68-22.80L157.68-22.80L157.68-22.80Q155.52-18.64 154.80-16L154.80-16L154.80-15.92L151.92 0L142.32 0L147.60-29.52L147.60-29.52Q145.20-29.28 143.60-27.28L143.60-27.28" fill="#51cacc" stroke="none" stroke-width="none" transform="translate(-130,19.87399826049805)" style="fill: rgb(255, 112, 142);"></path></g><g class="path" style="transform: matrix(0.01, 0, 0, 0.01, 0, 0); transform-origin: 54.72px 2.834px; animation: 1s linear 0.4125s 1 normal forwards running bounce-in-99c70a7e-564b-4105-95e0-cbc547757161;"><path d="M180.80-1.36L180.80-1.36L180.80-1.36Q188.72-1.36 188.72-13.04L188.72-13.04L188.72-13.04Q188.72-15.92 187.88-19.84L187.88-19.84L187.88-19.84Q187.04-23.76 186.88-24.72L186.88-24.72L186.88-24.72Q182-19.68 175.92-18.64L175.92-18.64L175.92-20.56L175.92-20.56Q181.68-21.84 186.72-27.12L186.72-27.12L186.72-27.44L186.72-27.44Q186.72-29.36 187.28-31.20L187.28-31.20L187.28-31.20Q187.84-33.04 188.40-33.92L188.40-33.92L188.96-34.80L190.88-34.80L190.88-34.80Q190.88-31.28 192-28.36L192-28.36L192-28.36Q193.12-25.44 194.48-23.64L194.48-23.64L194.48-23.64Q195.84-21.84 196.96-18.92L196.96-18.92L196.96-18.92Q198.08-16 198.08-12.48L198.08-12.48L198.08-12.48Q198.08-6.80 193.80-3.04L193.80-3.04L193.80-3.04Q189.52 0.72 183.52 0.72L183.52 0.72L183.52 0.72Q177.52 0.72 174.44-2L174.44-2L174.44-2Q171.36-4.72 171.36-8.28L171.36-8.28L171.36-8.28Q171.36-11.84 173.12-13.40L173.12-13.40L173.12-13.40Q174.88-14.96 177.28-14.96L177.28-14.96L177.28-14.96Q179.68-14.96 181.24-13.40L181.24-13.40L181.24-13.40Q182.80-11.84 182.80-9.40L182.80-9.40L182.80-9.40Q182.80-6.96 181.28-5.28L181.28-5.28L181.28-5.28Q179.76-3.60 177.36-3.60L177.36-3.60L177.36-3.60Q176.32-3.60 175.20-3.92L175.20-3.92L175.20-3.92Q176.96-1.36 180.80-1.36" fill="#51cacc" stroke="none" stroke-width="none" transform="translate(-130,19.87399826049805)" style="fill: rgb(81, 202, 204);"></path></g><g class="path" style="transform: matrix(0.01, 0, 0, 0.01, 0, 0); transform-origin: 84.88px -1.246px; animation: 1s linear 0.495s 1 normal forwards running bounce-in-99c70a7e-564b-4105-95e0-cbc547757161;"><path d="M203.20-30.40L207.28-30.40L209.44-42.24L209.44-42.24Q215.36-42.24 218.24-42.72L218.24-42.72L219.28-42.96L219.28-42.96Q218.16-37.36 216.80-30.40L216.80-30.40L226.72-30.40L226.56-28.96L216.56-28.96L216.56-28.96Q212.56-8.32 212.56-4.08L212.56-4.08L212.56-4.08Q212.56-1.52 215.28-1.52L215.28-1.52L215.28-1.52Q218-1.52 220.24-4.96L220.24-4.96L220.24-4.96Q222.48-8.40 223.44-12.40L223.44-12.40L224.88-11.92L224.88-11.92Q221.92 0.72 212.64 0.72L212.64 0.72L212.64 0.72Q208.80 0.72 206.24-1.40L206.24-1.40L206.24-1.40Q203.68-3.52 203.68-7.32L203.68-7.32L203.68-7.32Q203.68-11.12 206.96-28.96L206.96-28.96L203.04-28.96L203.20-30.40" fill="#51cacc" stroke="none" stroke-width="none" transform="translate(-130,19.87399826049805)" style="fill: rgb(157, 248, 113);"></path></g><g class="path" style="transform: matrix(0.01, 0, 0, 0.01, 0, 0); transform-origin: 115.68px 11.674px; animation: 1s linear 0.5775s 1 normal forwards running bounce-in-99c70a7e-564b-4105-95e0-cbc547757161;"><path d="M233.04-29.52L233.04-29.52L233.04-29.52Q231.12-29.52 229.04-27.28L229.04-27.28L227.84-28.24L227.84-28.24Q228.40-29.36 230.32-30.24L230.32-30.24L230.32-30.24Q232.24-31.12 234.56-31.12L234.56-31.12L234.56-31.12Q241.84-31.12 241.84-24.56L241.84-24.56L241.84-24.56Q241.84-21.76 240.32-15.40L240.32-15.40L240.32-15.40Q238.80-9.04 238.80-6.80L238.80-6.80L238.80-6.80Q238.80-2.96 242-2.96L242-2.96L242-2.96Q244.64-2.96 247.16-6.56L247.16-6.56L247.16-6.56Q249.68-10.16 251.28-16.24L251.28-16.24L253.92-30.40L253.92-30.40Q259.84-30.40 262.56-30.88L262.56-30.88L263.60-31.12L258.56-2.80L258.56-2.80Q257.12 5.44 251.88 10.08L251.88 10.08L251.88 10.08Q246.64 14.72 238.32 14.72L238.32 14.72L238.32 14.72Q233.28 14.72 230.52 13L230.52 13L230.52 13Q227.76 11.28 227.76 8.52L227.76 8.52L227.76 8.52Q227.76 5.76 229.44 4.12L229.44 4.12L229.44 4.12Q231.12 2.48 234.20 2.48L234.20 2.48L234.20 2.48Q237.28 2.48 239.92 3.48L239.92 3.48L239.92 3.48Q242.56 4.48 243.76 4.64L243.76 4.64L243.60 6.08L243.60 6.08Q242.24 5.92 239.68 4.96L239.68 4.96L239.68 4.96Q237.12 4 234.60 4L234.60 4L234.60 4Q232.08 4 230.76 5.12L230.76 5.12L230.76 5.12Q229.44 6.24 229.44 8.36L229.44 8.36L229.44 8.36Q229.44 10.48 231.76 11.80L231.76 11.80L231.76 11.80Q234.08 13.12 237.52 13.12L237.52 13.12L237.52 13.12Q245.84 13.12 247.76 3.12L247.76 3.12L249.76-7.92L249.76-7.92Q246.40-0.56 239.60-0.56L239.60-0.56L239.60-0.56Q234.96-0.56 232.44-3.20L232.44-3.20L232.44-3.20Q229.92-5.84 229.92-10.64L229.92-10.64L229.92-10.64Q229.92-13.12 231.40-19.56L231.40-19.56L231.40-19.56Q232.88-26 233.04-29.52" fill="#51cacc" stroke="none" stroke-width="none" transform="translate(-130,19.87399826049805)" style="fill: rgb(224, 255, 119);"></path></g></g>
</g>
</g>
<style id="bounce-in-99c70a7e-564b-4105-95e0-cbc547757161" data-anikit="">@keyframes bounce-in-99c70a7e-564b-4105-95e0-cbc547757161
{
  0% {
    animation-timing-function: cubic-bezier(0.0383,0.3388,0.0421,0.6652);
    transform: matrix(0.01,0,0,0.01,0,0);
    opacity: 1;
  }
  4.7% {
    animation-timing-function: cubic-bezier(0.3296,0.3336,0.5772,0.6672);
    transform: matrix(0.556,0,0,0.556,0,0);
    opacity: 1;
  }
  8.4% {
    animation-timing-function: cubic-bezier(0.0781,0.1617,0.0874,0.9301);
    transform: matrix(0.979,0,0,0.979,0,0);
    opacity: 1;
  }
  12.4% {
    animation-timing-function: cubic-bezier(0.8341,0.1496,0.8634,0.7673);
    transform: matrix(1.153,0,0,1.153,0,0);
    opacity: 1;
  }
  16.3% {
    animation-timing-function: cubic-bezier(0.3264,0.3332,0.5758,0.6695);
    transform: matrix(1.008,0,0,1.008,0,0);
    opacity: 1;
  }
  21.2% {
    animation-timing-function: cubic-bezier(0.0921,0.1883,0.3277,1);
    transform: matrix(0.704,0,0,0.704,0,0);
    opacity: 1;
  }
  24.5% {
    animation-timing-function: cubic-bezier(0.6905,0.0944,0.8759,0.7624);
    transform: matrix(0.626,0,0,0.626,0,0);
    opacity: 1;
  }
  27.7% {
    animation-timing-function: cubic-bezier(0.3688,0.332,0.624,0.6684);
    transform: matrix(0.704,0,0,0.704,0,0);
    opacity: 1;
  }
  32.6% {
    animation-timing-function: cubic-bezier(0.1368,0.2364,0.2451,0.9049);
    transform: matrix(0.958,0,0,0.958,0,0);
    opacity: 1;
  }
  37.4% {
    animation-timing-function: cubic-bezier(0.5936,0.0846,0.3495,1);
    transform: matrix(1.085,0,0,1.085,0,0);
    opacity: 1;
  }
  49.5% {
    animation-timing-function: cubic-bezier(0.5522,0.0981,0.3807,1);
    transform: matrix(0.802,0,0,0.802,0,0);
    opacity: 1;
  }
  62.4% {
    animation-timing-function: cubic-bezier(0.4497,0.1349,0.4911,1);
    transform: matrix(1.044,0,0,1.044,0,0);
    opacity: 1;
  }
  74.1% {
    animation-timing-function: cubic-bezier(0.429,0,0.5239,1);
    transform: matrix(0.914,0,0,0.914,0,0);
    opacity: 1;
  }
  87% {
    animation-timing-function: cubic-bezier(0.3501,0,0.6422,1);
    transform: matrix(1.013,0,0,1.013,0,0);
    opacity: 1;
  }
  95.8% {
    animation-timing-function: cubic-bezier(0.3653,0,0.6776,1);
    transform: matrix(0.992,0,0,0.992,0,0);
    opacity: 1;
  }
  100% {
    transform: matrix(1,0,0,1,0,0);
    opacity: 1;
  }
}</style></svg>