<?xml version="1.0" encoding="utf-8"?>
<svg xmlns="http://www.w3.org/2000/svg" style="margin: auto; display: block; shape-rendering: auto;" width="286" height="33" preserveAspectRatio="xMidYMid">
<style type="text/css">
  text {
    text-anchor: middle; font-size: 31px; opacity: 0;
  }
</style>
<g style="transform-origin:143px 16.5px;transform:scale(1)">
<g transform="translate(143,16.5)">
  <g transform="translate(0,0)"><g class="path" style="transform: scale(0.91); transform-origin: -117.04px -2.6934px; animation: 1s linear -0.625263s infinite normal forwards running breath-5d81f268-66a1-49f7-baa2-e6f9ae716348;"><path d="M16.31 0L13.24-18.57L10.17 0L7.53 0L2.42-21.70L4.28-21.70L8.71-2.14L12.03-21.70L14.45-21.70L17.76-2.14L22.13-21.70L23.99-21.70L18.94 0L16.31 0" fill="#346b21" stroke="none" stroke-width="none" transform="translate(-130.24497509002686,8.156598601341248)" style="fill: rgb(52, 107, 33);"></path></g><g class="path" style="transform: scale(0.91); transform-origin: -97.03px 0.376599px; animation: 1s linear -0.590526s infinite normal forwards running breath-5d81f268-66a1-49f7-baa2-e6f9ae716348;"><path d="M39.00-5.70L39.00-5.70Q39.00-3.10 37.57-1.40L37.57-1.40L37.57-1.40Q36.15 0.31 33.26 0.31L33.26 0.31L33.26 0.31Q30.38 0.31 28.91-1.41L28.91-1.41L28.91-1.41Q27.43-3.13 27.43-5.70L27.43-5.70L27.43-9.80L27.43-9.80Q27.43-12.74 28.94-14.31L28.94-14.31L28.94-14.31Q30.44-15.87 33.26-15.87L33.26-15.87L33.26-15.87Q35.96-15.87 37.48-14.24L37.48-14.24L37.48-14.24Q39.00-12.62 39.00-9.80L39.00-9.80L39.00-5.70zM37.26-9.80L37.26-9.80Q37.26-12.12 36.19-13.21L36.19-13.21L36.19-13.21Q35.12-14.29 33.26-14.29L33.26-14.29L33.26-14.29Q31.34-14.29 30.26-13.21L30.26-13.21L30.26-13.21Q29.17-12.12 29.17-9.80L29.17-9.80L29.17-5.39L29.17-5.39Q29.17-3.53 30.27-2.39L30.27-2.39L30.27-2.39Q31.37-1.24 33.26-1.24L33.26-1.24L33.26-1.24Q35.19-1.24 36.22-2.37L36.22-2.37L36.22-2.37Q37.26-3.50 37.26-5.39L37.26-5.39L37.26-9.80" fill="#346b21" stroke="none" stroke-width="none" transform="translate(-130.24497509002686,8.156598601341248)" style="fill: rgb(148, 209, 55);"></path></g><g class="path" style="transform: scale(0.91); transform-origin: -84.46px 0.251599px; animation: 1s linear -0.555789s infinite normal forwards running breath-5d81f268-66a1-49f7-baa2-e6f9ae716348;"><path d="M41.91 0L41.91-15.53L43.65-15.53L43.55-14.45L43.55-14.45Q45.01-15.81 47.37-15.81L47.37-15.81L47.37-15.81Q48.20-15.81 49.66-15.53L49.66-15.53L49.20-13.95L49.20-13.95Q48.20-14.26 47.12-14.26L47.12-14.26L47.12-14.26Q45.69-14.26 44.67-13.73L44.67-13.73L44.67-13.73Q43.65-13.21 43.65-12.15L43.65-12.15L43.65 0L41.91 0" fill="#346b21" stroke="none" stroke-width="none" transform="translate(-130.24497509002686,8.156598601341248)" style="fill: rgb(179, 228, 110);"></path></g><g class="path" style="transform: scale(0.91); transform-origin: -72.135px -2.6934px; animation: 1s linear -0.521053s infinite normal forwards running breath-5d81f268-66a1-49f7-baa2-e6f9ae716348;"><path d="M61.72 0L55.77-9.83L54.16-8.43L54.16 0L52.42 0L52.42-21.70L54.16-21.70L54.16-10.38L60.36-16.12L61.60-14.91L57.01-10.91L57.01-10.91Q59.12-7.41 63.80 0L63.80 0L61.72 0" fill="#346b21" stroke="none" stroke-width="none" transform="translate(-130.24497509002686,8.156598601341248)" style="fill: rgb(240, 241, 242);"></path></g><g class="path" style="transform: scale(0.91); transform-origin: -59.33px 0.436599px; animation: 1s linear -0.486316s infinite normal forwards running breath-5d81f268-66a1-49f7-baa2-e6f9ae716348;"><path d="M76.88 0L76.88 0Q73.53 0.34 72.04 0.34L72.04 0.34L72.04 0.34Q68.79 0.34 66.87-0.87L66.87-0.87L66.87-0.87Q64.95-2.08 64.95-5.24L64.95-5.24L64.95-7.81L64.95-7.81Q64.95-10.88 67.08-11.94L67.08-11.94L67.08-11.94Q68.11-12.46 69.69-12.46L69.69-12.46L69.69-12.46Q71.14-12.46 72.63-11.98L72.63-11.98L72.63-11.98Q74.12-11.50 75.14-10.73L75.14-10.73L75.14-10.73Q75.14-12.43 74.15-13.44L74.15-13.44L74.15-13.44Q73.16-14.45 70.34-14.45L70.34-14.45L70.43-15.78L70.43-15.78Q73.41-15.78 74.82-14.83L74.82-14.83L74.82-14.83Q76.23-13.89 76.55-12.59L76.55-12.59L76.55-12.59Q76.88-11.28 76.88-9.24L76.88-9.24L76.88 0zM75.14-9.39L75.14-9.39Q73.87-9.98 72.43-10.42L72.43-10.42L72.43-10.42Q70.99-10.85 69.78-10.85L69.78-10.85L69.78-10.85Q66.65-10.85 66.65-7.72L66.65-7.72L66.65-5.02L66.65-5.02Q66.65-3.01 68.05-2.09L68.05-2.09L68.05-2.09Q69.44-1.18 72.01-1.18L72.01-1.18L72.01-1.18Q73.35-1.18 75.14-1.43L75.14-1.43L75.14-9.39" fill="#346b21" stroke="none" stroke-width="none" transform="translate(-130.24497509002686,8.156598601341248)" style="fill: rgb(52, 107, 33);"></path></g><g class="path" style="transform: scale(0.91); transform-origin: -44.545px -2.6934px; animation: 1s linear -0.451579s infinite normal forwards running breath-5d81f268-66a1-49f7-baa2-e6f9ae716348;"><path d="M89.71 0L89.71-10.63L89.71-10.63Q89.71-12.52 88.61-13.38L88.61-13.38L88.61-13.38Q87.51-14.23 85.78-14.23L85.78-14.23L85.78-14.23Q84.72-14.23 83.64-13.93L83.64-13.93L83.64-13.93Q82.55-13.64 81.72-13.18L81.72-13.18L81.72 0L79.98 0L79.98-21.70L81.72-21.70L81.72-14.69L81.72-14.69Q82.49-15.22 83.58-15.52L83.58-15.52L83.58-15.52Q84.66-15.81 85.84-15.81L85.84-15.81L85.84-15.81Q87.45-15.81 88.78-15.22L88.78-15.22L88.78-15.22Q90.02-14.66 90.72-13.55L90.72-13.55L90.72-13.55Q91.42-12.43 91.42-10.73L91.42-10.73L91.42 0L89.71 0" fill="#346b21" stroke="none" stroke-width="none" transform="translate(-130.24497509002686,8.156598601341248)" style="fill: rgb(148, 209, 55);"></path></g><g class="path" style="transform: scale(0.91); transform-origin: -28.765px 0.376599px; animation: 1s linear -0.416842s infinite normal forwards running breath-5d81f268-66a1-49f7-baa2-e6f9ae716348;"><path d="M107.26-5.70L107.26-5.70Q107.26-3.10 105.83-1.40L105.83-1.40L105.83-1.40Q104.41 0.31 101.53 0.31L101.53 0.31L101.53 0.31Q98.64 0.31 97.17-1.41L97.17-1.41L97.17-1.41Q95.70-3.13 95.70-5.70L95.70-5.70L95.70-9.80L95.70-9.80Q95.70-12.74 97.20-14.31L97.20-14.31L97.20-14.31Q98.70-15.87 101.53-15.87L101.53-15.87L101.53-15.87Q104.22-15.87 105.74-14.24L105.74-14.24L105.74-14.24Q107.26-12.62 107.26-9.80L107.26-9.80L107.26-5.70zM105.52-9.80L105.52-9.80Q105.52-12.12 104.45-13.21L104.45-13.21L104.45-13.21Q103.39-14.29 101.53-14.29L101.53-14.29L101.53-14.29Q99.60-14.29 98.52-13.21L98.52-13.21L98.52-13.21Q97.43-12.12 97.43-9.80L97.43-9.80L97.43-5.39L97.43-5.39Q97.43-3.53 98.53-2.39L98.53-2.39L98.53-2.39Q99.63-1.24 101.53-1.24L101.53-1.24L101.53-1.24Q103.45-1.24 104.49-2.37L104.49-2.37L104.49-2.37Q105.52-3.50 105.52-5.39L105.52-5.39L105.52-9.80" fill="#346b21" stroke="none" stroke-width="none" transform="translate(-130.24497509002686,8.156598601341248)" style="fill: rgb(179, 228, 110);"></path></g><g class="path" style="transform: scale(0.91); transform-origin: -18.675px -2.6934px; animation: 1s linear -0.382105s infinite normal forwards running breath-5d81f268-66a1-49f7-baa2-e6f9ae716348;"><path d="M110.70 0L110.70-21.70L112.44-21.70L112.44 0L110.70 0" fill="#346b21" stroke="none" stroke-width="none" transform="translate(-130.24497509002686,8.156598601341248)" style="fill: rgb(240, 241, 242);"></path></g><g class="path" style="transform: scale(0.91); transform-origin: -11.87px -12.8134px; animation: 1s linear -0.347368s infinite normal forwards running breath-5d81f268-66a1-49f7-baa2-e6f9ae716348;"><path d="M118.39-19.93L118.39-19.93Q117.99-19.93 117.66-20.26L117.66-20.26L117.66-20.26Q117.34-20.58 117.34-20.99L117.34-20.99L117.34-20.99Q117.34-21.39 117.65-21.70L117.65-21.70L117.65-21.70Q117.96-22.01 118.39-22.01L118.39-22.01L118.39-22.01Q118.82-22.01 119.12-21.72L119.12-21.72L119.12-21.72Q119.41-21.42 119.41-20.99L119.41-20.99L119.41-20.99Q119.41-20.55 119.10-20.24L119.10-20.24L119.10-20.24Q118.79-19.93 118.39-19.93L118.39-19.93" fill="#346b21" stroke="none" stroke-width="none" transform="translate(-130.24497509002686,8.156598601341248)" style="fill: rgb(52, 107, 33);"></path></g><g class="path" style="transform: scale(0.91); transform-origin: -11.885px 0.391599px; animation: 1s linear -0.312632s infinite normal forwards running breath-5d81f268-66a1-49f7-baa2-e6f9ae716348;"><path d="M117.49 0L117.49-15.53L119.23-15.53L119.23 0L117.49 0" fill="#346b21" stroke="none" stroke-width="none" transform="translate(-130.24497509002686,8.156598601341248)" style="fill: rgb(148, 209, 55);"></path></g><g class="path" style="transform: scale(0.91); transform-origin: -2.24498px 0.406599px; animation: 1s linear -0.277895s infinite normal forwards running breath-5d81f268-66a1-49f7-baa2-e6f9ae716348;"><path d="M132.99-0.19L132.99-0.19Q131.07 0.31 129.27 0.31L129.27 0.31L129.27 0.31Q127.60 0.31 126.48-0.06L126.48-0.06L126.48-0.06Q124.65-0.68 123.83-1.97L123.83-1.97L123.83-1.97Q123.01-3.25 123.01-5.58L123.01-5.58L123.01-9.55L123.01-9.55Q123.01-12.62 124.62-14.21L124.62-14.21L124.62-14.21Q126.23-15.81 128.77-15.81L128.77-15.81L128.77-15.81Q130.79-15.81 132.93-14.82L132.93-14.82L132.43-13.55L132.43-13.55Q130.67-14.26 129.02-14.26L129.02-14.26L129.02-14.26Q127.10-14.26 125.92-13.16L125.92-13.16L125.92-13.16Q124.74-12.06 124.74-9.73L124.74-9.73L124.74-5.24L124.74-5.24Q124.74-3.10 126.03-2.14L126.03-2.14L126.03-2.14Q127.32-1.18 129.46-1.18L129.46-1.18L129.46-1.18Q130.85-1.18 132.62-1.58L132.62-1.58L132.99-0.19" fill="#346b21" stroke="none" stroke-width="none" transform="translate(-130.24497509002686,8.156598601341248)" style="fill: rgb(179, 228, 110);"></path></g><g class="path" style="transform: scale(0.91); transform-origin: 20.335px 0.376599px; animation: 1s linear -0.243158s infinite normal forwards running breath-5d81f268-66a1-49f7-baa2-e6f9ae716348;"><path d="M156.36-5.70L156.36-5.70Q156.36-3.10 154.94-1.40L154.94-1.40L154.94-1.40Q153.51 0.31 150.63 0.31L150.63 0.31L150.63 0.31Q147.75 0.31 146.27-1.41L146.27-1.41L146.27-1.41Q144.80-3.13 144.80-5.70L144.80-5.70L144.80-9.80L144.80-9.80Q144.80-12.74 146.30-14.31L146.30-14.31L146.30-14.31Q147.81-15.87 150.63-15.87L150.63-15.87L150.63-15.87Q153.33-15.87 154.84-14.24L154.84-14.24L154.84-14.24Q156.36-12.62 156.36-9.80L156.36-9.80L156.36-5.70zM154.63-9.80L154.63-9.80Q154.63-12.12 153.56-13.21L153.56-13.21L153.56-13.21Q152.49-14.29 150.63-14.29L150.63-14.29L150.63-14.29Q148.71-14.29 147.62-13.21L147.62-13.21L147.62-13.21Q146.54-12.12 146.54-9.80L146.54-9.80L146.54-5.39L146.54-5.39Q146.54-3.53 147.64-2.39L147.64-2.39L147.64-2.39Q148.74-1.24 150.63-1.24L150.63-1.24L150.63-1.24Q152.55-1.24 153.59-2.37L153.59-2.37L153.59-2.37Q154.63-3.50 154.63-5.39L154.63-5.39L154.63-9.80" fill="#346b21" stroke="none" stroke-width="none" transform="translate(-130.24497509002686,8.156598601341248)" style="fill: rgb(240, 241, 242);"></path></g><g class="path" style="transform: scale(0.91); transform-origin: 32.4px -2.8484px; animation: 1s linear -0.208421s infinite normal forwards running breath-5d81f268-66a1-49f7-baa2-e6f9ae716348;"><path d="M159.81 0L159.81-17.02L159.81-17.02Q159.81-19.59 161.11-20.80L161.11-20.80L161.11-20.80Q162.41-22.01 164.33-22.01L164.33-22.01L164.33-22.01Q164.92-22.01 165.48-21.92L165.48-21.92L165.20-20.40L165.20-20.40Q164.64-20.46 164.39-20.46L164.39-20.46L164.39-20.46Q161.54-20.46 161.54-17.02L161.54-17.02L161.54-15.53L165.07-15.53L164.33-13.89L161.54-13.89L161.54 0L159.81 0" fill="#346b21" stroke="none" stroke-width="none" transform="translate(-130.24497509002686,8.156598601341248)" style="fill: rgb(52, 107, 33);"></path></g><g class="path" style="transform: scale(0.91); transform-origin: 48.965px -2.4934px; animation: 1s linear -0.173684s infinite normal forwards running breath-5d81f268-66a1-49f7-baa2-e6f9ae716348;"><path d="M179.77 0.40L179.77 0.40Q178.03-0.09 177.26-1.18L177.26-1.18L177.26-1.18Q176.48-2.26 176.48-4.09L176.48-4.09L176.48-21.70L178.22-21.70L178.22-15.53L181.94-15.53L181.19-13.89L178.22-13.89L178.22-4.09L178.22-4.09Q178.22-1.61 180.26-0.93L180.26-0.93L179.77 0.40" fill="#346b21" stroke="none" stroke-width="none" transform="translate(-130.24497509002686,8.156598601341248)" style="fill: rgb(148, 209, 55);"></path></g><g class="path" style="transform: scale(0.91); transform-origin: 60.11px -2.6934px; animation: 1s linear -0.138947s infinite normal forwards running breath-5d81f268-66a1-49f7-baa2-e6f9ae716348;"><path d="M194.37 0L194.37-10.63L194.37-10.63Q194.37-12.52 193.27-13.38L193.27-13.38L193.27-13.38Q192.17-14.23 190.43-14.23L190.43-14.23L190.43-14.23Q189.38-14.23 188.29-13.93L188.29-13.93L188.29-13.93Q187.21-13.64 186.37-13.18L186.37-13.18L186.37 0L184.64 0L184.64-21.70L186.37-21.70L186.37-14.69L186.37-14.69Q187.15-15.22 188.23-15.52L188.23-15.52L188.23-15.52Q189.32-15.81 190.49-15.81L190.49-15.81L190.49-15.81Q192.11-15.81 193.44-15.22L193.44-15.22L193.44-15.22Q194.68-14.66 195.38-13.55L195.38-13.55L195.38-13.55Q196.07-12.43 196.07-10.73L196.07-10.73L196.07 0L194.37 0" fill="#346b21" stroke="none" stroke-width="none" transform="translate(-130.24497509002686,8.156598601341248)" style="fill: rgb(179, 228, 110);"></path></g><g class="path" style="transform: scale(0.91); transform-origin: 74.355px 0.436599px; animation: 1s linear -0.104211s infinite normal forwards running breath-5d81f268-66a1-49f7-baa2-e6f9ae716348;"><path d="M209.40-1.08L209.40-1.08Q208.29-0.37 206.86 0L206.86 0L206.86 0Q205.44 0.37 204.01 0.37L204.01 0.37L204.01 0.37Q201.72 0.37 200.37-0.76L200.37-0.76L200.37-0.76Q199.02-1.89 199.02-4.15L199.02-4.15L199.02-10.51L199.02-10.51Q199.02-13.02 200.59-14.41L200.59-14.41L200.59-14.41Q202.15-15.81 204.72-15.81L204.72-15.81L204.72-15.81Q207.30-15.81 208.74-14.43L208.74-14.43L208.74-14.43Q210.18-13.05 210.18-10.60L210.18-10.60L210.18-6.57L200.76-6.04L200.76-4.15L200.76-4.15Q200.76-2.67 201.72-1.92L201.72-1.92L201.72-1.92Q202.68-1.18 204.23-1.18L204.23-1.18L204.23-1.18Q206.40-1.18 208.72-2.42L208.72-2.42L209.40-1.08zM208.44-10.82L208.44-10.82Q208.44-12.74 207.23-13.53L207.23-13.53L207.23-13.53Q206.03-14.32 204.69-14.32L204.69-14.32L204.69-14.32Q202.99-14.32 201.87-13.39L201.87-13.39L201.87-13.39Q200.76-12.46 200.76-10.48L200.76-10.48L200.76-7.75L208.44-8.12L208.44-10.82" fill="#346b21" stroke="none" stroke-width="none" transform="translate(-130.24497509002686,8.156598601341248)" style="fill: rgb(240, 241, 242);"></path></g><g class="path" style="transform: scale(0.91); transform-origin: 97.895px -2.5084px; animation: 1s linear -0.0694737s infinite normal forwards running breath-5d81f268-66a1-49f7-baa2-e6f9ae716348;"><path d="M222.42-10.73L222.42-10.73Q222.42-13.98 225.06-15.19L225.06-15.19L225.06-15.19Q226.33-15.78 228.10-15.78L228.10-15.78L228.10-15.78Q229.24-15.78 230.31-15.50L230.31-15.50L230.31-15.50Q231.38-15.22 232.13-14.69L232.13-14.69L232.13-21.70L233.86-21.70L233.86 0L232.16 0.15L232.16 0.15Q230.14 0.37 229.00 0.37L229.00 0.37L229.00 0.37Q227.85 0.37 226.84 0.15L226.84 0.15L226.84 0.15Q225.83-0.06 224.84-0.56L224.84-0.56L224.84-0.56Q223.73-1.12 223.08-2.20L223.08-2.20L223.08-2.20Q222.42-3.29 222.42-4.87L222.42-4.87L222.42-10.73zM232.13-13.18L232.13-13.18Q231.29-13.64 230.21-13.93L230.21-13.93L230.21-13.93Q229.12-14.23 228.07-14.23L228.07-14.23L228.07-14.23Q226.33-14.23 225.23-13.38L225.23-13.38L225.23-13.38Q224.13-12.52 224.13-10.63L224.13-10.63L224.13-4.84L224.13-4.84Q224.13-1.21 229.12-1.21L229.12-1.21L229.12-1.21Q230.30-1.21 232.13-1.49L232.13-1.49L232.13-13.18" fill="#346b21" stroke="none" stroke-width="none" transform="translate(-130.24497509002686,8.156598601341248)" style="fill: rgb(52, 107, 33);"></path></g><g class="path" style="transform: scale(0.91); transform-origin: 111.755px 0.436599px; animation: 1s linear -0.0347368s infinite normal forwards running breath-5d81f268-66a1-49f7-baa2-e6f9ae716348;"><path d="M247.97 0L247.97 0Q244.62 0.34 243.13 0.34L243.13 0.34L243.13 0.34Q239.88 0.34 237.96-0.87L237.96-0.87L237.96-0.87Q236.03-2.08 236.03-5.24L236.03-5.24L236.03-7.81L236.03-7.81Q236.03-10.88 238.17-11.94L238.17-11.94L238.17-11.94Q239.20-12.46 240.78-12.46L240.78-12.46L240.78-12.46Q242.23-12.46 243.72-11.98L243.72-11.98L243.72-11.98Q245.21-11.50 246.23-10.73L246.23-10.73L246.23-10.73Q246.23-12.43 245.24-13.44L245.24-13.44L245.24-13.44Q244.25-14.45 241.43-14.45L241.43-14.45L241.52-15.78L241.52-15.78Q244.50-15.78 245.91-14.83L245.91-14.83L245.91-14.83Q247.32-13.89 247.64-12.59L247.64-12.59L247.64-12.59Q247.97-11.28 247.97-9.24L247.97-9.24L247.97 0zM246.23-9.39L246.23-9.39Q244.96-9.98 243.52-10.42L243.52-10.42L243.52-10.42Q242.08-10.85 240.87-10.85L240.87-10.85L240.87-10.85Q237.74-10.85 237.74-7.72L237.74-7.72L237.74-5.02L237.74-5.02Q237.74-3.01 239.13-2.09L239.13-2.09L239.13-2.09Q240.53-1.18 243.10-1.18L243.10-1.18L243.10-1.18Q244.43-1.18 246.23-1.43L246.23-1.43L246.23-9.39" fill="#346b21" stroke="none" stroke-width="none" transform="translate(-130.24497509002686,8.156598601341248)" style="fill: rgb(148, 209, 55);"></path></g><g class="path" style="transform: scale(0.91); transform-origin: 126.325px 3.5066px; animation: 1s linear 0s infinite normal forwards running breath-5d81f268-66a1-49f7-baa2-e6f9ae716348;"><path d="M258.14 5.18L258.14 5.18Q260.21 4.40 260.21 1.95L260.21 1.95L260.21-1.52L260.21-1.52Q259.63-0.53 258.45-0.08L258.45-0.08L258.45-0.08Q257.27 0.37 255.90 0.37L255.90 0.37L255.90 0.37Q253.18 0.37 251.70-1.10L251.70-1.10L251.70-1.10Q250.23-2.57 250.23-5.46L250.23-5.46L250.23-15.53L251.91-15.53L251.91-5.15L251.91-5.15Q251.91-3.16 252.99-2.19L252.99-2.19L252.99-2.19Q254.08-1.21 255.90-1.21L255.90-1.21L255.90-1.21Q257.83-1.21 259.00-2.17L259.00-2.17L259.00-2.17Q260.18-3.13 260.18-5.15L260.18-5.15L260.18-11.25L260.18-11.25Q260.18-12.74 260.28-13.47L260.28-13.47L260.28-13.47Q260.37-14.20 260.85-14.83L260.85-14.83L260.85-14.83Q261.33-15.47 262.45-15.81L262.45-15.81L262.91-14.63L262.91-14.63Q261.86-14.17 261.86-12.46L261.86-12.46L261.86 1.89L261.86 1.89Q261.86 3.78 261.11 4.87L261.11 4.87L261.11 4.87Q260.37 5.95 258.60 6.51L258.60 6.51L258.14 5.18" fill="#346b21" stroke="none" stroke-width="none" transform="translate(-130.24497509002686,8.156598601341248)" style="fill: rgb(179, 228, 110);"></path></g></g>
</g>
</g>
<style id="breath-5d81f268-66a1-49f7-baa2-e6f9ae716348" data-anikit="">@keyframes breath-5d81f268-66a1-49f7-baa2-e6f9ae716348
{
  0% {
    animation-timing-function: cubic-bezier(0.9647,0.2413,-0.0705,0.7911);
    transform: scale(0.9099999999999999);
  }
  51% {
    animation-timing-function: cubic-bezier(0.9226,0.2631,-0.0308,0.7628);
    transform: scale(1.02994);
  }
  100% {
    transform: scale(0.9099999999999999);
  }
}</style></svg>